<svg width="9" height="11" viewBox="0 0 9 11" fill="none" xmlns="http://www.w3.org/2000/svg">
<path d="M5.01599 0.51C5.01599 0.37474 4.96217 0.245019 4.86638 0.149376C4.77059 0.053732 4.64067 0 4.5052 0C4.36973 0 4.23981 0.053732 4.14402 0.149376C4.04823 0.245019 3.99442 0.37474 3.99442 0.51V1.00062L3.66036 0.82416C3.60106 0.79285 3.53617 0.773507 3.46939 0.767237C3.40261 0.760967 3.33524 0.767892 3.27114 0.787616C3.20703 0.807341 3.14745 0.839479 3.09579 0.882195C3.04412 0.924912 3.00139 0.97737 2.97003 1.03657C2.93867 1.09578 2.9193 1.16057 2.91302 1.22725C2.90674 1.29393 2.91368 1.3612 2.93343 1.4252C2.95319 1.4892 2.98537 1.5487 3.02816 1.60028C3.07094 1.65186 3.12348 1.69453 3.18278 1.72584L3.99442 2.15424V3.12426C3.63485 3.21717 3.30745 3.40619 3.04742 3.67098L2.20564 3.18546L2.23986 2.2695C2.24487 2.13431 2.19589 2.00266 2.10369 1.90353C2.0115 1.80439 1.88363 1.74589 1.74823 1.74089C1.61283 1.73588 1.48098 1.78479 1.38169 1.87684C1.28241 1.9689 1.22381 2.09657 1.2188 2.23176L1.20501 2.60865L0.779521 2.36385C0.721375 2.32793 0.656598 2.30404 0.589031 2.29358C0.521463 2.28312 0.452481 2.28632 0.386173 2.30297C0.319864 2.31963 0.25758 2.3494 0.203012 2.39054C0.148444 2.43167 0.102702 2.48333 0.0684997 2.54244C0.034297 2.60156 0.012329 2.66693 0.00389799 2.73467C-0.00453298 2.80242 0.00074475 2.87117 0.0194182 2.93684C0.0380916 3.00252 0.0697805 3.06378 0.112607 3.117C0.155433 3.17022 0.208524 3.21431 0.268734 3.24666L0.69422 3.49197L0.373956 3.69291C0.262251 3.76621 0.183776 3.88031 0.155371 4.01073C0.126965 4.14114 0.150894 4.27748 0.222021 4.39048C0.293148 4.50348 0.405805 4.58414 0.535818 4.61515C0.665829 4.64616 0.802835 4.62504 0.917434 4.55634L1.69485 4.06878L2.53612 4.55379C2.43665 4.91116 2.43665 5.28884 2.53612 5.64621L1.69485 6.13071L0.917434 5.64366C0.802835 5.57496 0.665829 5.55384 0.535818 5.58485C0.405805 5.61586 0.293148 5.69652 0.222021 5.80952C0.150894 5.92252 0.126965 6.05886 0.155371 6.18927C0.183776 6.31969 0.262251 6.43379 0.373956 6.50709L0.69422 6.70803L0.268734 6.95283C0.210611 6.98632 0.159664 7.03091 0.1188 7.08405C0.0779365 7.1372 0.047957 7.19786 0.0305735 7.26258C0.0131901 7.32729 0.00874302 7.39479 0.0174862 7.46122C0.0262294 7.52765 0.0479917 7.59171 0.0815304 7.64975C0.115069 7.70778 0.159728 7.75865 0.212956 7.79945C0.266184 7.84025 0.32694 7.87018 0.391755 7.88754C0.456569 7.9049 0.524173 7.90934 0.590706 7.90061C0.657239 7.89188 0.721398 7.87015 0.779521 7.83666L1.2045 7.59135L1.2188 7.96875C1.22131 8.03569 1.23701 8.10148 1.26499 8.16236C1.29297 8.22325 1.33269 8.27804 1.38187 8.32359C1.43106 8.36915 1.48875 8.40459 1.55165 8.42789C1.61456 8.45118 1.68144 8.46188 1.74848 8.45937C1.81553 8.45686 1.88142 8.44119 1.9424 8.41325C2.00338 8.38531 2.05825 8.34566 2.10387 8.29655C2.1495 8.24744 2.185 8.18983 2.20833 8.12703C2.23166 8.06422 2.24238 7.99744 2.23986 7.9305L2.20564 7.01454L3.04742 6.52902C3.30745 6.79382 3.63485 6.98283 3.99442 7.07574V8.04576L3.18278 8.47416C3.06302 8.53739 2.97333 8.64554 2.93343 8.7748C2.89353 8.90406 2.9067 9.04386 2.97003 9.16343C3.03336 9.283 3.14167 9.37255 3.27114 9.41238C3.4006 9.45222 3.54061 9.43908 3.66036 9.37584L3.99442 9.19938V9.69C3.99442 9.82526 4.04823 9.95498 4.14402 10.0506C4.23981 10.1463 4.36973 10.2 4.5052 10.2C4.64067 10.2 4.77059 10.1463 4.86638 10.0506C4.96217 9.95498 5.01599 9.82526 5.01599 9.69V9.19938L5.35005 9.37584C5.4698 9.43908 5.60981 9.45222 5.73927 9.41238C5.86873 9.37255 5.97704 9.283 6.04037 9.16343C6.1037 9.04386 6.11687 8.90406 6.07697 8.7748C6.03708 8.64554 5.94739 8.53739 5.82763 8.47416L5.01599 8.04576V7.07574C5.3755 6.98297 5.7029 6.79414 5.96299 6.52953L6.80477 7.01454L6.77054 7.9305C6.76803 7.99744 6.77874 8.06422 6.80208 8.12703C6.82541 8.18983 6.8609 8.24744 6.90653 8.29655C6.95216 8.34566 7.00703 8.38531 7.06801 8.41325C7.12898 8.44119 7.19488 8.45686 7.26192 8.45937C7.32896 8.46188 7.39585 8.45118 7.45875 8.42789C7.52165 8.40459 7.57935 8.36915 7.62853 8.32359C7.67772 8.27804 7.71743 8.22325 7.74542 8.16236C7.7734 8.10148 7.78909 8.03569 7.79161 7.96875L7.8054 7.59135L8.23089 7.83666C8.289 7.87068 8.35327 7.89288 8.42002 7.90199C8.48676 7.9111 8.55465 7.90694 8.61977 7.88975C8.6849 7.87256 8.74597 7.84268 8.79948 7.80182C8.85299 7.76096 8.89788 7.70995 8.93156 7.6517C8.96525 7.59345 8.98706 7.52913 8.99574 7.46243C9.00442 7.39573 8.99981 7.32798 8.98216 7.26307C8.96451 7.19816 8.93417 7.13738 8.8929 7.08422C8.85163 7.03106 8.80023 6.98658 8.74167 6.95334L8.3167 6.70854L8.63645 6.5076C8.75119 6.43564 8.83261 6.32112 8.86278 6.18923C8.89295 6.05733 8.86942 5.91888 8.79735 5.80431C8.72528 5.68974 8.61058 5.60846 8.47848 5.57833C8.34639 5.5482 8.20771 5.5717 8.09297 5.64366L7.31555 6.13122L6.47429 5.64672C6.57385 5.28919 6.57385 4.91132 6.47429 4.55379L7.31555 4.06878L8.09297 4.55634C8.20771 4.6283 8.34639 4.6518 8.47848 4.62167C8.61058 4.59154 8.72528 4.51026 8.79735 4.39569C8.86942 4.28112 8.89295 4.14267 8.86278 4.01077C8.83261 3.87888 8.75119 3.76436 8.63645 3.6924L8.31619 3.49197L8.74167 3.24666C8.80023 3.21342 8.85163 3.16894 8.8929 3.11578C8.93417 3.06262 8.96451 3.00184 8.98216 2.93693C8.99981 2.87202 9.00442 2.80427 8.99574 2.73757C8.98706 2.67087 8.96525 2.60655 8.93156 2.5483C8.89788 2.49006 8.85299 2.43904 8.79948 2.39818C8.74597 2.35732 8.6849 2.32744 8.61977 2.31025C8.55465 2.29306 8.48676 2.2889 8.42002 2.29801C8.35327 2.30712 8.289 2.32932 8.23089 2.36334L7.8054 2.60814L7.79161 2.23125C7.78909 2.16431 7.7734 2.09852 7.74542 2.03763C7.71743 1.97675 7.67772 1.92197 7.62853 1.87641C7.57935 1.83085 7.52165 1.79541 7.45875 1.77211C7.39585 1.74882 7.32896 1.73812 7.26192 1.74063C7.19488 1.74314 7.12898 1.75881 7.06801 1.78675C7.00703 1.81469 6.95216 1.85434 6.90653 1.90345C6.8609 1.95256 6.82541 2.01017 6.80208 2.07297C6.77874 2.13578 6.76803 2.20256 6.77054 2.2695L6.80477 3.18546L5.96299 3.67047C5.7029 3.40586 5.3755 3.21703 5.01599 3.12426V2.15424L5.82763 1.72584C5.94739 1.66261 6.03708 1.55446 6.07697 1.4252C6.11687 1.29594 6.1037 1.15615 6.04037 1.03657C5.97704 0.917005 5.86873 0.827452 5.73927 0.787616C5.60981 0.747781 5.4698 0.760926 5.35005 0.82416L5.01599 1.00062V0.51Z" fill="#165FF5"/>
</svg>
