<svg width="14" height="25" viewBox="0 0 14 25" fill="none" xmlns="http://www.w3.org/2000/svg">
<path fill-rule="evenodd" clip-rule="evenodd" d="M6.36365 0C4.25494 0 2.54547 1.67889 2.54547 3.75001V13.7495C0.999826 14.8898 0 16.7052 0 18.75C0 22.2018 2.84914 25 6.36365 25C9.87816 25 12.7273 22.2018 12.7273 18.75C12.7273 16.7052 11.7275 14.8898 10.1818 13.7495V3.75001C10.1818 1.67889 8.47235 0 6.36365 0ZM11.4545 1.24998H14V2.49996H11.4545V1.24998ZM11.4545 4.99999H14V6.24997H11.4545V4.99999ZM14 8.74999H11.4545V9.99998H14V8.74999ZM11.4545 12.5H14V13.75H11.4545V12.5ZM6.36365 21.25C7.76945 21.25 8.90912 20.1307 8.90912 18.75C8.90912 17.3693 7.76945 16.25 6.36365 16.25C4.95784 16.25 3.81818 17.3693 3.81818 18.75C3.81818 20.1307 4.95784 21.25 6.36365 21.25Z" fill="#165FF5"/>
</svg>
