<svg width="26" height="26" viewBox="0 0 26 26" fill="none" xmlns="http://www.w3.org/2000/svg">
<path fill-rule="evenodd" clip-rule="evenodd" d="M12.649 0.0787011C12.822 0.1386 12.9815 0.232009 13.1183 0.353587C13.2552 0.475166 13.3667 0.622529 13.4466 0.787249C13.5264 0.951969 13.573 1.13082 13.5837 1.31356C13.5944 1.49631 13.569 1.67937 13.5089 1.85227C12.9741 3.3929 13.0451 5.07922 13.7076 6.56942C13.8571 6.9073 13.8662 7.29073 13.733 7.63536C13.5998 7.97998 13.3351 8.25757 12.9972 8.40706C12.6593 8.55655 12.2759 8.56569 11.9313 8.43247C11.5866 8.29925 11.3091 8.03459 11.1596 7.6967C10.2117 5.56207 10.1102 3.14709 10.8754 0.940415C10.935 0.767102 11.0281 0.607237 11.1495 0.469983C11.2709 0.332729 11.4182 0.220783 11.583 0.14056C11.7478 0.0603377 11.9267 0.0134152 12.1097 0.00248151C12.2926 -0.00845216 12.4759 0.016818 12.649 0.076844M8.27914 5.05956C8.32987 4.6936 8.23315 4.32247 8.01025 4.02783C7.78735 3.73318 7.45653 3.53915 7.09057 3.48842C6.72461 3.43768 6.35349 3.53441 6.05884 3.75731C5.76419 3.98021 5.57016 4.31103 5.51943 4.67699C5.34164 5.95598 5.63755 7.25584 6.35143 8.33185C6.45264 8.48427 6.58288 8.61527 6.73472 8.71736C6.88656 8.81946 7.05702 8.89064 7.23637 8.92686C7.41572 8.96307 7.60045 8.96361 7.78 8.92843C7.95956 8.89325 8.13043 8.82306 8.28286 8.72184C8.43529 8.62063 8.56628 8.49039 8.66838 8.33855C8.77047 8.18671 8.84165 8.01625 8.87787 7.8369C8.91408 7.65755 8.91462 7.47283 8.87944 7.29327C8.84427 7.11371 8.77407 6.94284 8.67286 6.79042C8.33493 6.28078 8.19491 5.66522 8.27914 5.05956ZM19.2084 7.67256C18.7009 7.54253 18.1687 7.54242 17.6611 7.67225C17.1534 7.80208 16.6867 8.05766 16.3039 8.41542L16.2816 8.4377L9.01829 15.701L9.009 15.7103C8.64762 16.0822 8.38545 16.5389 8.24655 17.0385C8.10766 17.5381 8.09648 18.0646 8.21406 18.5697C8.33163 19.0747 8.57419 19.5422 8.91946 19.9291C9.26474 20.316 9.70167 20.6099 10.1901 20.784L21.7639 25.0981L21.7769 25.1037C22.3144 25.2942 22.8946 25.3298 23.4514 25.2065C24.0082 25.0832 24.5191 24.806 24.926 24.4065C25.3329 24.0069 25.6194 23.5011 25.7528 22.9467C25.8862 22.3922 25.8612 21.8115 25.6806 21.2706L21.385 9.70613C21.2203 9.21236 20.9348 8.76763 20.5543 8.41244C20.1738 8.05726 19.7105 7.80291 19.2066 7.67256M5.96886 14.3954C5.38366 14.2605 4.76919 14.3486 4.24543 14.6424C3.92281 14.8224 3.54189 14.8669 3.18647 14.7661C2.83105 14.6653 2.53024 14.4274 2.35021 14.1048C2.17019 13.7822 2.1257 13.4012 2.22652 13.0458C2.32735 12.6904 2.56524 12.3896 2.88786 12.2096C4.01205 11.5806 5.32966 11.3914 6.58543 11.6784C6.94573 11.7602 7.25879 11.9817 7.45574 12.2943C7.65269 12.6069 7.7174 12.9849 7.63564 13.3452C7.55388 13.7055 7.33234 14.0186 7.01976 14.2155C6.70717 14.4125 6.32915 14.4772 5.96886 14.3954ZM1.85714 6.20542C1.3646 6.20542 0.892226 6.40108 0.543945 6.74936C0.195663 7.09764 0 7.57001 0 8.06256C0 8.5551 0.195663 9.02748 0.543945 9.37576C0.892226 9.72404 1.3646 9.9197 1.85714 9.9197C2.34969 9.9197 2.82206 9.72404 3.17034 9.37576C3.51862 9.02748 3.71429 8.5551 3.71429 8.06256C3.71429 7.57001 3.51862 7.09764 3.17034 6.74936C2.82206 6.40108 2.34969 6.20542 1.85714 6.20542Z" fill="#165FF5"/>
</svg>
