<svg width="17" height="16" viewBox="0 0 17 16" fill="none" xmlns="http://www.w3.org/2000/svg">
<path d="M15.1784 0C14.1727 0 13.3567 0.671875 13.3567 1.5C13.3567 2.32812 14.1727 3 15.1784 3C16.1841 3 17 2.32812 17 1.5C17 0.671875 16.1841 0 15.1784 0ZM15.1784 14C14.8444 14 14.5712 14.225 14.5712 14.5C14.5712 14.775 14.2979 15 13.9639 15H10.3207C9.98672 15 9.71347 15.225 9.71347 15.5C9.71347 15.775 9.98672 16 10.3207 16H13.9639C14.9696 16 15.7856 15.3281 15.7856 14.5C15.7856 14.225 15.5123 14 15.1784 14ZM4.46869 14.2688C4.2334 14.4625 3.8463 14.4656 3.61101 14.2688L1.03416 12.1469C0.798862 11.9531 0.411765 11.9531 0.176471 12.1469C-0.0588235 12.3406 -0.0588235 12.6594 0.176471 12.8531L2.75332 14.975C3.11006 15.2688 3.57685 15.4125 4.04364 15.4125C4.51044 15.4125 4.97723 15.2656 5.33017 14.975C5.56546 14.7813 5.56546 14.4625 5.33017 14.2688C5.09488 14.075 4.70778 14.0719 4.46869 14.2688ZM6.59772 8.65L3.04175 11.5781C2.56736 11.9688 2.56736 12.6031 3.04175 12.9906C3.27704 13.1844 3.58824 13.2844 3.89943 13.2844C4.21063 13.2844 4.52182 13.1875 4.75712 12.9906L8.24478 10.1187L7.09867 9.175C6.90892 9.01875 6.74194 8.84062 6.59772 8.65ZM4.85579 5H8.85958L8.09677 5.5375C7.58444 5.89687 7.27704 6.425 7.25047 6.97813C7.22391 7.53438 7.48197 8.07812 7.96015 8.46875L10.9279 10.9125V13.5C10.9279 14.0531 11.4706 14.5 12.1423 14.5C12.814 14.5 13.3567 14.0531 13.3567 13.5V10.7063C13.3567 10.3125 13.1632 9.925 12.8216 9.64688L10.5066 7.74062C10.5256 7.72812 10.5522 7.72188 10.5712 7.70625L13.6945 5.13438C14.1309 4.775 14.26 4.24062 14.0247 3.77187C13.7894 3.30312 13.2391 3 12.6205 3H4.85579C4.18406 3 3.64137 3.44687 3.64137 4C3.64137 4.55313 4.18406 5 4.85579 5Z" fill="#F8F5FF"/>
</svg>
