<svg width="26" height="30" viewBox="0 0 26 30" fill="none" xmlns="http://www.w3.org/2000/svg">
<path d="M14.4906 1.47562C14.4906 1.08426 14.3352 0.708933 14.0584 0.4322C13.7817 0.155467 13.4064 0 13.015 0C12.6237 0 12.2483 0.155467 11.9716 0.4322C11.6949 0.708933 11.5394 1.08426 11.5394 1.47562V2.89517L10.5744 2.38461C10.4031 2.29401 10.2156 2.23805 10.0227 2.21991C9.82975 2.20176 9.63513 2.2218 9.44995 2.27887C9.26476 2.33594 9.09263 2.42893 8.94338 2.55252C8.79413 2.67612 8.67068 2.8279 8.58009 2.9992C8.4895 3.17051 8.43354 3.35798 8.41539 3.55091C8.39725 3.74384 8.41729 3.93845 8.47436 4.12364C8.53143 4.30883 8.62441 4.48097 8.74801 4.63022C8.8716 4.77947 9.02338 4.90292 9.19468 4.99351L11.5394 6.23303V9.03967C10.5007 9.30849 9.55484 9.85538 8.80365 10.6215L6.37185 9.21674L6.47071 6.56652C6.48519 6.17536 6.34369 5.79446 6.07734 5.50763C5.81099 5.2208 5.4416 5.05152 5.05044 5.03704C4.65928 5.02256 4.27839 5.16406 3.99156 5.43042C3.70473 5.69677 3.53545 6.06616 3.52097 6.45733L3.48113 7.54781L2.25195 6.83951C2.08397 6.73559 1.89684 6.66645 1.70164 6.63619C1.50645 6.60594 1.30717 6.61518 1.11561 6.66337C0.924052 6.71156 0.74412 6.79771 0.586478 6.91673C0.428837 7.03576 0.296696 7.18522 0.197888 7.35625C0.0990803 7.52729 0.035617 7.71643 0.0112609 7.91245C-0.0130953 8.10847 0.0021515 8.30738 0.0560969 8.4974C0.110042 8.68742 0.201588 8.86467 0.325308 9.01866C0.449028 9.17264 0.602404 9.30021 0.776343 9.39382L2.00552 10.1036L1.08032 10.685C0.757615 10.8971 0.530909 11.2272 0.448849 11.6046C0.366789 11.9819 0.435916 12.3764 0.641394 12.7033C0.846872 13.0303 1.17233 13.2637 1.54792 13.3534C1.92351 13.4431 2.3193 13.382 2.65036 13.1832L4.89624 11.7725L7.32656 13.1758C7.03922 14.2098 7.03922 15.3026 7.32656 16.3366L4.89624 17.7385L2.65036 16.3292C2.3193 16.1305 1.92351 16.0694 1.54792 16.1591C1.17233 16.2488 0.846872 16.4822 0.641394 16.8091C0.435916 17.1361 0.366789 17.5306 0.448849 17.9079C0.530909 18.2852 0.757615 18.6154 1.08032 18.8275L2.00552 19.4089L0.776343 20.1172C0.608433 20.2141 0.461251 20.3431 0.3432 20.4968C0.22515 20.6506 0.138542 20.8261 0.0883236 21.0134C0.0381047 21.2006 0.0252576 21.3959 0.0505157 21.5881C0.0757738 21.7803 0.138643 21.9657 0.235532 22.1336C0.332422 22.3015 0.461436 22.4487 0.615206 22.5668C0.768977 22.6848 0.944494 22.7714 1.13174 22.8216C1.31898 22.8719 1.51428 22.8847 1.70648 22.8594C1.89869 22.8342 2.08404 22.7713 2.25195 22.6744L3.47966 21.9646L3.52097 23.0566C3.52824 23.2503 3.57358 23.4406 3.65442 23.6168C3.73525 23.793 3.84999 23.9515 3.99208 24.0833C4.13417 24.2151 4.30084 24.3177 4.48256 24.3851C4.66428 24.4525 4.85749 24.4834 5.05118 24.4762C5.24486 24.4689 5.43521 24.4235 5.61137 24.3427C5.78753 24.2619 5.94604 24.1471 6.07786 24.005C6.20968 23.863 6.31221 23.6963 6.37962 23.5146C6.44703 23.3328 6.47798 23.1396 6.47071 22.9459L6.37185 20.2957L8.80365 18.8909C9.55484 19.6571 10.5007 20.204 11.5394 20.4728V23.2794L9.19468 24.519C8.84873 24.7019 8.58962 25.0148 8.47436 25.3888C8.3591 25.7628 8.39713 26.1673 8.58009 26.5133C8.76305 26.8592 9.07595 27.1183 9.44995 27.2336C9.82395 27.3488 10.2284 27.3108 10.5744 27.1279L11.5394 26.6173V28.0368C11.5394 28.4282 11.6949 28.8035 11.9716 29.0803C12.2483 29.357 12.6237 29.5125 13.015 29.5125C13.4064 29.5125 13.7817 29.357 14.0584 29.0803C14.3352 28.8035 14.4906 28.4282 14.4906 28.0368V26.6173L15.4557 27.1279C15.8016 27.3108 16.2061 27.3488 16.5801 27.2336C16.9541 27.1183 17.267 26.8592 17.45 26.5133C17.6329 26.1673 17.671 25.7628 17.5557 25.3888C17.4404 25.0148 17.1813 24.7019 16.8354 24.519L14.4906 23.2794V20.4728C15.5292 20.2044 16.475 19.658 17.2264 18.8924L19.6582 20.2957L19.5593 22.9459C19.5521 23.1396 19.583 23.3328 19.6504 23.5146C19.7178 23.6963 19.8204 23.863 19.9522 24.005C20.084 24.1471 20.2425 24.2619 20.4187 24.3427C20.5948 24.4235 20.7852 24.4689 20.9789 24.4762C21.1726 24.4834 21.3658 24.4525 21.5475 24.3851C21.7292 24.3177 21.8959 24.2151 22.038 24.0833C22.1801 23.9515 22.2948 23.793 22.3756 23.6168C22.4565 23.4406 22.5018 23.2503 22.5091 23.0566L22.5489 21.9646L23.7781 22.6744C23.946 22.7728 24.1317 22.8371 24.3245 22.8634C24.5173 22.8898 24.7134 22.8778 24.9016 22.828C25.0897 22.7783 25.2661 22.6918 25.4207 22.5736C25.5753 22.4554 25.705 22.3078 25.8023 22.1393C25.8996 21.9707 25.9626 21.7846 25.9877 21.5916C26.0128 21.3986 25.9994 21.2026 25.9485 21.0148C25.8975 20.827 25.8098 20.6511 25.6906 20.4973C25.5714 20.3435 25.4229 20.2148 25.2537 20.1186L24.026 19.4103L24.9497 18.8289C25.2812 18.6207 25.5164 18.2894 25.6036 17.9078C25.6908 17.5262 25.6228 17.1255 25.4146 16.7941C25.2064 16.4626 24.875 16.2274 24.4934 16.1402C24.1118 16.053 23.7112 16.121 23.3797 16.3292L21.1338 17.7399L18.7035 16.3381C18.9911 15.3036 18.9911 14.2103 18.7035 13.1758L21.1338 11.7725L23.3797 13.1832C23.7112 13.3914 24.1118 13.4594 24.4934 13.3722C24.875 13.2851 25.2064 13.0499 25.4146 12.7184C25.6228 12.3869 25.6908 11.9863 25.6036 11.6047C25.5164 11.2231 25.2812 10.8917 24.9497 10.6835L24.0245 10.1036L25.2537 9.39382C25.4229 9.29763 25.5714 9.16893 25.6906 9.01513C25.8098 8.86133 25.8975 8.68547 25.9485 8.49766C25.9994 8.30985 26.0128 8.11381 25.9877 7.92083C25.9626 7.72785 25.8996 7.54174 25.8023 7.3732C25.705 7.20467 25.5753 7.05705 25.4207 6.93884C25.2661 6.82063 25.0897 6.73417 24.9016 6.68443C24.7134 6.63468 24.5173 6.62265 24.3245 6.64901C24.1317 6.67538 23.946 6.73962 23.7781 6.83804L22.5489 7.54634L22.5091 6.45585C22.5018 6.26217 22.4565 6.07181 22.3756 5.89565C22.2948 5.71949 22.1801 5.56097 22.038 5.42916C21.8959 5.29734 21.7292 5.1948 21.5475 5.12739C21.3658 5.05999 21.1726 5.02903 20.9789 5.0363C20.7852 5.04357 20.5948 5.08891 20.4187 5.16975C20.2425 5.25058 20.084 5.36532 19.9522 5.50741C19.8204 5.64951 19.7178 5.81617 19.6504 5.9979C19.583 6.17962 19.5521 6.37284 19.5593 6.56652L19.6582 9.21674L17.2264 10.6201C16.475 9.85444 15.5292 9.30807 14.4906 9.03967V6.23303L16.8354 4.99351C17.1813 4.81055 17.4404 4.49765 17.5557 4.12364C17.671 3.74964 17.6329 3.34517 17.45 2.9992C17.267 2.65324 16.9541 2.39413 16.5801 2.27887C16.2061 2.16361 15.8016 2.20165 15.4557 2.38461L14.4906 2.89517V1.47562Z" fill="#165FF5"/>
</svg>
