<svg width="20" height="15" viewBox="0 0 20 15" fill="none" xmlns="http://www.w3.org/2000/svg">
<path d="M10 8.82301C11.2009 8.82301 12.2878 8.32892 13.0748 7.53044C13.8609 6.73284 14.3478 5.62996 14.3478 4.41151C14.3478 3.19305 13.8609 2.09017 13.0748 1.29257C12.2878 0.494089 11.2009 0 10 0C8.79913 0 7.71217 0.494089 6.92522 1.29257C6.13913 2.09017 5.65217 3.19305 5.65217 4.41151C5.65217 5.62996 6.13913 6.73284 6.92522 7.53044C7.32896 7.94022 7.80831 8.26528 8.33589 8.48707C8.86346 8.70885 9.42893 8.823 10 8.82301ZM16.9565 9.70531C17.2422 9.70589 17.5251 9.64924 17.7891 9.53859C18.0531 9.42795 18.293 9.2655 18.495 9.06056C18.697 8.85562 18.8571 8.61223 18.9661 8.34435C19.0752 8.07648 19.131 7.78939 19.1304 7.49956C19.1304 6.89077 18.8878 6.33933 18.4939 5.93965C18.292 5.73484 18.0523 5.57239 17.7885 5.46158C17.5247 5.35076 17.242 5.29375 16.9565 5.29381C16.6709 5.29323 16.3879 5.34988 16.1239 5.46053C15.8599 5.57117 15.62 5.73362 15.4181 5.93856C15.2161 6.1435 15.056 6.38689 14.9469 6.65477C14.8379 6.92264 14.782 7.20973 14.7826 7.49956C14.7821 7.78935 14.8381 8.07639 14.9472 8.34421C15.0562 8.61204 15.2164 8.85538 15.4183 9.0603C15.6203 9.26521 15.8601 9.42767 16.1241 9.53836C16.388 9.64904 16.6709 9.70578 16.9565 9.70531ZM16.9565 10.2259C15.7991 10.2259 14.9287 10.5841 14.42 11.0799C13.4504 10.2709 11.9174 9.70531 10 9.70531C8.02957 9.70531 6.52609 10.277 5.57217 11.0852C5.05391 10.5867 4.17391 10.2259 3.04348 10.2259C1.14087 10.2259 0 11.1876 0 12.151C0 12.6319 1.14087 13.1145 3.04348 13.1145C3.5687 13.1145 4.04 13.0695 4.45478 12.9972L4.42 13.2354C4.42 14.1177 6.51217 15 10 15C13.2713 15 15.58 14.1177 15.58 13.2354L15.5626 13.0104C15.9652 13.0748 16.4278 13.1145 16.9565 13.1145C18.74 13.1145 20 12.6319 20 12.151C20 11.1876 18.8061 10.2259 16.9565 10.2259ZM3.04348 9.70531C3.64348 9.70531 4.18696 9.45915 4.58087 9.05947C4.78272 8.8546 4.94283 8.6114 5.05204 8.34375C5.16126 8.0761 5.21744 7.78924 5.21739 7.49956C5.21796 7.20973 5.16213 6.92264 5.05308 6.65477C4.94403 6.38689 4.78393 6.1435 4.58194 5.93856C4.37996 5.73362 4.14009 5.57117 3.87608 5.46053C3.61207 5.34988 3.32912 5.29323 3.04348 5.29381C2.75787 5.29334 2.47497 5.35008 2.21102 5.46076C1.94706 5.57145 1.70723 5.7339 1.50527 5.93882C1.30331 6.14374 1.1432 6.38708 1.03411 6.6549C0.925024 6.92273 0.869107 7.20977 0.869565 7.49956C0.868992 7.78939 0.924831 8.07648 1.03388 8.34435C1.14292 8.61223 1.30303 8.85562 1.50501 9.06056C1.70699 9.2655 1.94687 9.42795 2.21088 9.53859C2.47489 9.64924 2.75784 9.70589 3.04348 9.70531Z" fill="#F8F5FF"/>
</svg>
