<svg width="25" height="20" viewBox="0 0 25 20" fill="none" xmlns="http://www.w3.org/2000/svg">
<g clip-path="url(#clip0_0_304)">
<path d="M6.4081 0.631592C7.08821 0.631592 7.74046 0.891518 8.22136 1.35419C8.70227 1.81686 8.97244 2.44438 8.97244 3.0987C8.97244 3.75301 8.70227 4.38053 8.22136 4.8432C7.74046 5.30588 7.08821 5.5658 6.4081 5.5658C5.728 5.5658 5.07575 5.30588 4.59485 4.8432C4.11394 4.38053 3.84377 3.75301 3.84377 3.0987C3.84377 2.44438 4.11394 1.81686 4.59485 1.35419C5.07575 0.891518 5.728 0.631592 6.4081 0.631592ZM3.52323 19.1349V16.051H2.81003C2.37329 16.051 2.06477 15.6385 2.201 15.2376L3.4471 11.6372L2.30117 13.0943C1.87244 13.6379 1.06708 13.7419 0.506136 13.3333C-0.0548115 12.9247 -0.167001 12.1499 0.257716 11.6064L2.6177 8.61114C3.51522 7.4701 4.92159 6.79936 6.4081 6.79936C7.89462 6.79936 9.30099 7.4701 10.1985 8.61114L12.5585 11.6064C12.9872 12.1499 12.875 12.9247 12.3101 13.3333C11.7451 13.7419 10.9398 13.6379 10.515 13.0943L9.3691 11.6372L10.6152 15.2376C10.7554 15.6385 10.4429 16.051 10.0062 16.051H9.29298V19.1349C9.29298 19.8172 8.72001 20.3684 8.01081 20.3684C7.30161 20.3684 6.72865 19.8172 6.72865 19.1349V16.051H6.08756V19.1349C6.08756 19.8172 5.5146 20.3684 4.8054 20.3684C4.0962 20.3684 3.52323 19.8172 3.52323 19.1349ZM19.2298 0.631592C19.9099 0.631592 20.5621 0.891518 21.043 1.35419C21.5239 1.81686 21.7941 2.44438 21.7941 3.0987C21.7941 3.75301 21.5239 4.38053 21.043 4.8432C20.5621 5.30588 19.9099 5.5658 19.2298 5.5658C18.5497 5.5658 17.8974 5.30588 17.4165 4.8432C16.9356 4.38053 16.6654 3.75301 16.6654 3.0987C16.6654 2.44438 16.9356 1.81686 17.4165 1.35419C17.8974 0.891518 18.5497 0.631592 19.2298 0.631592ZM18.9092 15.4342V19.1349C18.9092 19.8172 18.3363 20.3684 17.6271 20.3684C16.9179 20.3684 16.3449 19.8172 16.3449 19.1349V12.2154L15.828 13.0057C15.4514 13.5839 14.658 13.7535 14.061 13.3912C13.464 13.0288 13.2837 12.2655 13.6604 11.6912L15.7319 8.52633C16.437 7.45082 17.6671 6.7955 18.9853 6.7955H19.4782C20.8004 6.7955 22.0305 7.44697 22.7317 8.52633L24.8032 11.695C25.1798 12.2732 24.9995 13.0327 24.4025 13.395C23.8055 13.7574 23.0121 13.5839 22.6355 13.0095L22.1146 12.2154V19.1349C22.1146 19.8172 21.5417 20.3684 20.8325 20.3684C20.1233 20.3684 19.5503 19.8172 19.5503 19.1349V15.4342H18.9092Z" fill="#F8F5FF"/>
</g>
<defs>
<clipPath id="clip0_0_304">
<rect width="25" height="20" fill="white"/>
</clipPath>
</defs>
</svg>
