<svg width="35" height="28" viewBox="0 0 35 28" fill="none" xmlns="http://www.w3.org/2000/svg">
<path d="M17.5 12.875C16.6949 12.875 15.9227 12.5458 15.3534 11.9597C14.7841 11.3737 14.4643 10.5788 14.4643 9.75C14.4643 8.9212 14.7841 8.12634 15.3534 7.54029C15.9227 6.95424 16.6949 6.625 17.5 6.625C18.3051 6.625 19.0773 6.95424 19.6466 7.54029C20.2159 8.12634 20.5357 8.9212 20.5357 9.75C20.5357 10.1604 20.4572 10.5667 20.3046 10.9459C20.1521 11.325 19.9285 11.6695 19.6466 11.9597C19.3647 12.2499 19.03 12.4801 18.6617 12.6371C18.2934 12.7942 17.8987 12.875 17.5 12.875ZM17.5 1C15.2457 1 13.0837 1.92187 11.4896 3.56282C9.89553 5.20376 9 7.42936 9 9.75C9 16.3125 17.5 26 17.5 26C17.5 26 26 16.3125 26 9.75C26 7.42936 25.1045 5.20376 23.5104 3.56282C21.9163 1.92187 19.7543 1 17.5 1Z" fill="#F8F5FF"/>
</svg>
