<svg width="15" height="12" viewBox="0 0 15 12" fill="none" xmlns="http://www.w3.org/2000/svg">
<path d="M1.41667 11.3333C1.02708 11.3333 0.693694 11.1947 0.4165 10.9175C0.139306 10.6403 0.000472222 10.3067 0 9.91667V1.41667C0 1.02708 0.138833 0.693694 0.4165 0.4165C0.694166 0.139305 1.02756 0.000472222 1.41667 0H12.75C13.1396 0 13.4732 0.138833 13.7509 0.4165C14.0285 0.694167 14.1671 1.02756 14.1667 1.41667V9.91667C14.1667 10.3062 14.0281 10.6399 13.7509 10.9175C13.4737 11.1952 13.1401 11.3338 12.75 11.3333H1.41667ZM7.08333 6.375L12.75 2.83333V1.41667L7.08333 4.95833L1.41667 1.41667V2.83333L7.08333 6.375Z" fill="#165FF5"/>
</svg>
