<svg width="34" height="34" viewBox="0 0 34 34" fill="none" xmlns="http://www.w3.org/2000/svg">
<path fill-rule="evenodd" clip-rule="evenodd" d="M17.0001 2.83337C17.3758 2.83337 17.7361 2.98263 18.0018 3.24831C18.2675 3.51398 18.4167 3.87432 18.4167 4.25004V5.61287L19.3432 5.12271C19.6754 4.94706 20.0637 4.91054 20.4227 5.0212C20.7818 5.13185 21.0822 5.38061 21.2578 5.71275C21.4335 6.04489 21.47 6.4332 21.3594 6.79226C21.2487 7.15133 20.9999 7.45172 20.6678 7.62737L18.4167 8.81737V11.5119C19.4296 11.7725 20.3321 12.3052 21.0432 13.0291L23.3779 11.6819L23.283 9.13754C23.2689 8.76201 23.4045 8.39625 23.6601 8.12075C23.9157 7.84524 24.2703 7.68255 24.6458 7.66846C25.0213 7.65437 25.3871 7.79004 25.6626 8.04562C25.9381 8.3012 26.1008 8.65576 26.1149 9.03129L26.1531 10.0796L27.3332 9.39821C27.4944 9.30372 27.6727 9.24205 27.8578 9.21674C28.0429 9.19143 28.2312 9.20298 28.4118 9.25073C28.5924 9.29849 28.7618 9.3815 28.9102 9.49499C29.0586 9.60847 29.1831 9.7502 29.2766 9.91199C29.37 10.0738 29.4305 10.2525 29.4545 10.4377C29.4786 10.623 29.4658 10.8112 29.4169 10.9915C29.3679 11.1718 29.2838 11.3407 29.1693 11.4883C29.0548 11.636 28.9123 11.7595 28.7499 11.8519L27.5698 12.5319L28.4581 13.09C28.6156 13.189 28.7522 13.3181 28.8599 13.4698C28.9676 13.6215 29.0443 13.793 29.0858 13.9744C29.1272 14.1558 29.1325 14.3436 29.1014 14.5271C29.0702 14.7105 29.0033 14.8861 28.9043 15.0436C28.8053 15.2012 28.6763 15.3377 28.5246 15.4454C28.3728 15.5531 28.2013 15.6299 28.0199 15.6714C27.8385 15.7128 27.6507 15.7181 27.4673 15.687C27.2838 15.6558 27.1083 15.5888 26.9507 15.4899L24.7946 14.1355L22.4613 15.4814C22.7374 16.4745 22.7374 17.5242 22.4613 18.5173L24.7946 19.8645L26.9507 18.5102C27.269 18.3103 27.6536 18.245 28.0199 18.3287C28.3863 18.4124 28.7044 18.6382 28.9043 18.9565C29.1042 19.2747 29.1695 19.6593 29.0858 20.0257C29.0021 20.392 28.7763 20.7102 28.4581 20.91L27.5712 21.4668L28.7499 22.1482C28.9123 22.2406 29.0548 22.3641 29.1693 22.5118C29.2838 22.6594 29.3679 22.8283 29.4169 23.0086C29.4658 23.1889 29.4786 23.3771 29.4545 23.5623C29.4305 23.7476 29.37 23.9263 29.2766 24.0881C29.1831 24.2499 29.0586 24.3916 28.9102 24.5051C28.7618 24.6186 28.5924 24.7016 28.4118 24.7493C28.2312 24.7971 28.0429 24.8087 27.8578 24.7833C27.6727 24.758 27.4944 24.6964 27.3332 24.6019L26.1546 23.9219L26.1149 24.9688C26.1008 25.3443 25.9381 25.6989 25.6626 25.9545C25.3871 26.21 25.0213 26.3457 24.6458 26.3316C24.2703 26.3175 23.9157 26.1548 23.6601 25.8793C23.4045 25.6038 23.2689 25.2381 23.283 24.8625L23.3779 22.3182L21.0432 20.971C20.3321 21.6935 19.4282 22.2275 18.4167 22.4882V25.1827L20.6678 26.3727C20.9999 26.5484 21.2487 26.8488 21.3594 27.2078C21.47 27.5669 21.4335 27.9552 21.2578 28.2873C21.0822 28.6195 20.7818 28.8682 20.4227 28.9789C20.0637 29.0895 19.6754 29.053 19.3432 28.8774L18.4167 28.3872V29.75C18.4167 30.1258 18.2675 30.4861 18.0018 30.7518C17.7361 31.0175 17.3758 31.1667 17.0001 31.1667C16.6243 31.1667 16.264 31.0175 15.9983 30.7518C15.7326 30.4861 15.5834 30.1258 15.5834 29.75V28.3872L14.6569 28.8774C14.4924 28.9644 14.3124 29.0181 14.1272 29.0355C13.942 29.0529 13.7552 29.0337 13.5774 28.9789C13.3996 28.9241 13.2343 28.8348 13.091 28.7162C12.9477 28.5975 12.8292 28.4518 12.7423 28.2873C12.6553 28.1229 12.6016 27.9429 12.5841 27.7577C12.5667 27.5725 12.586 27.3856 12.6407 27.2078C12.6955 27.03 12.7848 26.8648 12.9035 26.7215C13.0221 26.5782 13.1678 26.4597 13.3323 26.3727L15.5834 25.1827V22.4882C14.5861 22.2301 13.6781 21.7051 12.9569 20.9695L10.6222 22.3182L10.7171 24.8625C10.724 25.0485 10.6942 25.234 10.6294 25.4084C10.5646 25.5828 10.4661 25.7428 10.3395 25.8791C10.2129 26.0155 10.0606 26.1256 9.89147 26.2031C9.72231 26.2806 9.53954 26.324 9.35359 26.3309C9.16765 26.3378 8.98216 26.308 8.80774 26.2432C8.63331 26.1784 8.47336 26.0799 8.33701 25.9533C8.20065 25.8266 8.09058 25.6744 8.01306 25.5053C7.93554 25.3361 7.8921 25.1533 7.88522 24.9674L7.84697 23.9205L6.66688 24.6005C6.50561 24.7002 6.32596 24.7666 6.13856 24.7957C5.95116 24.8247 5.75984 24.8158 5.57593 24.7696C5.39203 24.7233 5.21928 24.6406 5.06794 24.5263C4.91659 24.4121 4.78973 24.2686 4.69487 24.1044C4.60001 23.9402 4.53908 23.7586 4.51569 23.5704C4.49231 23.3822 4.50695 23.1912 4.55874 23.0088C4.61053 22.8264 4.69842 22.6562 4.8172 22.5084C4.93598 22.3606 5.08322 22.2381 5.25022 22.1482L6.4303 21.4668L5.54205 20.9086C5.23224 20.705 5.01459 20.3881 4.9358 20.0258C4.85702 19.6635 4.92339 19.2848 5.12066 18.9709C5.31793 18.657 5.63038 18.433 5.99097 18.3469C6.35156 18.2607 6.73154 18.3194 7.04938 18.5102L9.20555 19.8645L11.5388 18.5173C11.2629 17.5246 11.2629 16.4755 11.5388 15.4828L9.20555 14.137L7.04938 15.4899C6.73154 15.6807 6.35156 15.7394 5.99097 15.6532C5.63038 15.5671 5.31793 15.343 5.12066 15.0292C4.92339 14.7153 4.85702 14.3366 4.9358 13.9743C5.01459 13.612 5.23224 13.2951 5.54205 13.0915L6.4303 12.5333L5.25022 11.8533C4.92465 11.6654 4.68705 11.3559 4.58968 10.9929C4.49231 10.6298 4.54315 10.243 4.73101 9.91742C4.91887 9.59185 5.22837 9.35425 5.59141 9.25688C5.95446 9.15951 6.34132 9.21035 6.66688 9.39821L7.84697 10.0796L7.88522 9.03129C7.89931 8.65576 8.062 8.3012 8.33751 8.04562C8.47392 7.91907 8.63393 7.82062 8.80839 7.75591C8.98285 7.6912 9.16835 7.66148 9.3543 7.66846C9.54025 7.67543 9.723 7.71897 9.89212 7.79657C10.0612 7.87418 10.2134 7.98433 10.34 8.12075C10.4665 8.25716 10.565 8.41717 10.6297 8.59163C10.6944 8.7661 10.7241 8.95159 10.7171 9.13754L10.6222 11.6819L12.9569 13.0305C13.6781 12.295 14.5861 11.77 15.5834 11.5119V8.81737L13.3323 7.62737C13.0002 7.45172 12.7514 7.15133 12.6407 6.79226C12.5301 6.4332 12.5666 6.04489 12.7423 5.71275C12.9179 5.38061 13.2183 5.13185 13.5774 5.0212C13.9364 4.91054 14.3247 4.94706 14.6569 5.12271L15.5834 5.61287V4.25004C15.5834 3.87432 15.7326 3.51398 15.9983 3.24831C16.264 2.98263 16.6243 2.83337 17.0001 2.83337ZM17.0001 19.8334C17.7515 19.8334 18.4722 19.5349 19.0035 19.0035C19.5349 18.4722 19.8334 17.7515 19.8334 17C19.8334 16.2486 19.5349 15.5279 19.0035 14.9966C18.4722 14.4652 17.7515 14.1667 17.0001 14.1667C16.2486 14.1667 15.5279 14.4652 14.9966 14.9966C14.4652 15.5279 14.1667 16.2486 14.1667 17C14.1667 17.7515 14.4652 18.4722 14.9966 19.0035C15.5279 19.5349 16.2486 19.8334 17.0001 19.8334Z" fill="#165FF5"/>
</svg>
