<svg width="17" height="17" viewBox="0 0 17 17" fill="none" xmlns="http://www.w3.org/2000/svg">
<path d="M7.03235 2.57054L8.44902 6.11221C8.51136 6.26841 8.51609 6.44169 8.46236 6.60105C8.40863 6.76042 8.29995 6.89547 8.15577 6.98204L6.97285 7.6925C7.55408 8.6457 8.35449 9.44636 9.30752 10.0279L10.018 8.84425C10.1045 8.70006 10.2396 8.59139 10.399 8.53766C10.5583 8.48393 10.7316 8.48866 10.8878 8.551L14.4295 9.96766C14.5609 10.0202 14.6736 10.1109 14.753 10.228C14.8324 10.3452 14.8749 10.4835 14.875 10.625V13.4583C14.875 14.632 13.9237 15.5833 12.7075 15.5819C6.63073 15.2129 1.78644 10.3686 1.41669 4.25C1.41669 3.68641 1.64057 3.14591 2.03909 2.7474C2.4376 2.34888 2.9781 2.125 3.54169 2.125H6.37502C6.51656 2.12509 6.65483 2.16758 6.77199 2.24699C6.88916 2.32641 6.97984 2.4391 7.03235 2.57054ZM11.3334 4.95833V4.96542C11.3334 5.15328 11.2587 5.33345 11.1259 5.46628C10.993 5.59912 10.8129 5.67375 10.625 5.67375C10.4372 5.67375 10.257 5.59912 10.1242 5.46628C9.99131 5.33345 9.91669 5.15328 9.91669 4.96542V4.95833C9.91669 4.77047 9.99131 4.5903 10.1242 4.45747C10.257 4.32463 10.4372 4.25 10.625 4.25C10.8129 4.25 10.993 4.32463 11.1259 4.45747C11.2587 4.5903 11.3334 4.77047 11.3334 4.95833ZM13.4584 4.95833V4.96542C13.4584 5.15328 13.3837 5.33345 13.2509 5.46628C13.118 5.59912 12.9379 5.67375 12.75 5.67375C12.5622 5.67375 12.382 5.59912 12.2492 5.46628C12.1163 5.33345 12.0417 5.15328 12.0417 4.96542V4.95833C12.0417 4.77047 12.1163 4.5903 12.2492 4.45747C12.382 4.32463 12.5622 4.25 12.75 4.25C12.9379 4.25 13.118 4.32463 13.2509 4.45747C13.3837 4.5903 13.4584 4.77047 13.4584 4.95833ZM15.5834 4.95833V4.96542C15.5834 5.15328 15.5087 5.33345 15.3759 5.46628C15.243 5.59912 15.0629 5.67375 14.875 5.67375C14.6872 5.67375 14.507 5.59912 14.3742 5.46628C14.2413 5.33345 14.1667 5.15328 14.1667 4.96542V4.95833C14.1667 4.77047 14.2413 4.5903 14.3742 4.45747C14.507 4.32463 14.6872 4.25 14.875 4.25C15.0629 4.25 15.243 4.32463 15.3759 4.45747C15.5087 4.5903 15.5834 4.77047 15.5834 4.95833Z" fill="#165FF5"/>
</svg>
