<svg width="17" height="13" viewBox="0 0 17 13" fill="none" xmlns="http://www.w3.org/2000/svg">
<path d="M1.64643 11.6937C0.668471 10.7887 0.111101 9.74247 0.0106341 8.00024C-0.166156 4.93449 1.87643 2.05977 4.99887 0.516623L5.86845 1.67752C2.972 3.42998 2.50616 5.51422 2.3478 6.82052C2.81482 6.54927 3.43969 6.42799 4.06014 6.44846C5.68465 6.50154 7.03332 7.72534 7.12631 9.33793C7.1732 10.151 6.88783 10.9499 6.33299 11.5587C5.77814 12.1675 4.99927 12.5365 4.16771 12.5845C3.70762 12.6071 3.24775 12.54 2.81489 12.3871C2.38203 12.2342 1.98483 11.9985 1.64643 11.6937ZM10.6047 11.1771C9.62673 10.2721 9.06936 9.22588 8.96889 7.48365C8.7921 4.4179 10.8347 1.54318 13.9571 3.45434e-05L14.8267 1.16094C11.9303 2.9134 11.4644 4.99763 11.3061 6.30393C11.7731 6.03268 12.3979 5.9114 13.0184 5.93187C14.6429 5.98496 15.9916 7.20875 16.0846 8.82134C16.1315 9.63443 15.8461 10.4333 15.2912 11.0421C14.7364 11.651 13.9575 12.0199 13.126 12.0679C12.6659 12.0905 12.206 12.0234 11.7731 11.8705C11.3403 11.7176 10.9431 11.4819 10.6047 11.1771Z" fill="#F8F5FF"/>
</svg>
