<svg width="20" height="23" viewBox="0 0 20 23" fill="none" xmlns="http://www.w3.org/2000/svg">
<path d="M11.1466 1.13333C11.1466 0.832755 11.0271 0.544487 10.8142 0.331946C10.6013 0.119404 10.3126 0 10.0116 0C9.71052 0 9.42181 0.119404 9.20894 0.331946C8.99607 0.544487 8.87648 0.832755 8.87648 1.13333V2.2236L8.13414 1.83147C8.00237 1.76189 7.85816 1.7189 7.70975 1.70497C7.56134 1.69104 7.41164 1.70643 7.26919 1.75026C7.12674 1.79409 6.99433 1.86551 6.87952 1.96043C6.76471 2.05536 6.66976 2.17193 6.60007 2.3035C6.53039 2.43507 6.48734 2.57905 6.47338 2.72723C6.45942 2.87541 6.47484 3.02488 6.51874 3.16711C6.56264 3.30934 6.63417 3.44155 6.72924 3.55618C6.82431 3.67081 6.94106 3.76562 7.07283 3.8352L8.87648 4.7872V6.9428C8.07744 7.14927 7.34988 7.5693 6.77204 8.15773L4.90142 7.0788L4.97747 5.04333C4.98861 4.7429 4.87976 4.45036 4.67488 4.23006C4.46999 4.00977 4.18585 3.87975 3.88495 3.86863C3.58406 3.85751 3.29107 3.96619 3.07043 4.17076C2.84979 4.37533 2.71958 4.65904 2.70844 4.95947L2.67779 5.797L1.73227 5.253C1.60305 5.17318 1.45911 5.12008 1.30896 5.09684C1.15881 5.0736 1.00551 5.0807 0.858161 5.11771C0.71081 5.15472 0.5724 5.2209 0.451137 5.31231C0.329875 5.40372 0.228228 5.51851 0.152222 5.64988C0.0762156 5.78124 0.0273977 5.9265 0.00866221 6.07705C-0.0100733 6.2276 0.001655 6.38038 0.0431514 6.52632C0.0846479 6.67226 0.155068 6.8084 0.250237 6.92666C0.345406 7.04493 0.463388 7.14291 0.597187 7.2148L1.54271 7.75993L0.831014 8.20647C0.582781 8.36936 0.408391 8.62292 0.345268 8.91273C0.282145 9.20254 0.33532 9.50551 0.49338 9.75662C0.65144 10.0077 0.90179 10.187 1.19071 10.2559C1.47962 10.3248 1.78408 10.2779 2.03874 10.1252L3.76634 9.04173L5.63582 10.1195C5.41479 10.9137 5.41479 11.753 5.63582 12.5471L3.76634 13.6238L2.03874 12.5415C1.78408 12.3888 1.47962 12.3419 1.19071 12.4108C0.90179 12.4797 0.65144 12.6589 0.49338 12.91C0.33532 13.1612 0.282145 13.4641 0.345268 13.7539C0.408391 14.0437 0.582781 14.2973 0.831014 14.4602L1.54271 14.9067L0.597187 15.4507C0.468025 15.5251 0.354808 15.6242 0.264 15.7423C0.173192 15.8604 0.106571 15.9952 0.0679412 16.1391C0.0293113 16.2829 0.0194289 16.4329 0.0388583 16.5805C0.0582876 16.7281 0.106648 16.8705 0.181179 16.9994C0.255709 17.1284 0.35495 17.2414 0.473236 17.3321C0.591521 17.4228 0.726534 17.4893 0.870566 17.5279C1.0146 17.5664 1.16483 17.5763 1.31268 17.5569C1.46053 17.5375 1.60311 17.4892 1.73227 17.4148L2.67666 16.8697L2.70844 17.7083C2.71403 17.8571 2.74891 18.0033 2.81109 18.1386C2.87327 18.2739 2.96153 18.3956 3.07083 18.4969C3.18013 18.5981 3.30834 18.6769 3.44812 18.7286C3.58791 18.7804 3.73653 18.8042 3.88552 18.7986C4.03451 18.793 4.18093 18.7582 4.31644 18.6961C4.45195 18.634 4.57388 18.5459 4.67528 18.4368C4.77667 18.3276 4.85555 18.1996 4.9074 18.0601C4.95925 17.9205 4.98306 17.7721 4.97747 17.6233L4.90142 15.5879L6.77204 14.5089C7.34988 15.0974 8.07744 15.5174 8.87648 15.7239V17.8795L7.07283 18.8315C6.80671 18.972 6.6074 19.2123 6.51874 19.4996C6.43008 19.7868 6.45933 20.0975 6.60007 20.3632C6.74081 20.6289 6.9815 20.8279 7.26919 20.9164C7.55688 21.0049 7.86801 20.9757 8.13414 20.8352L8.87648 20.4431V21.5333C8.87648 21.8339 8.99607 22.1222 9.20894 22.3347C9.42181 22.5473 9.71052 22.6667 10.0116 22.6667C10.3126 22.6667 10.6013 22.5473 10.8142 22.3347C11.0271 22.1222 11.1466 21.8339 11.1466 21.5333V20.4431L11.889 20.8352C12.1551 20.9757 12.4662 21.0049 12.7539 20.9164C13.0416 20.8279 13.2823 20.6289 13.4231 20.3632C13.5638 20.0975 13.593 19.7868 13.5044 19.4996C13.4157 19.2123 13.2164 18.972 12.9503 18.8315L11.1466 17.8795V15.7239C11.9456 15.5177 12.6731 15.0981 13.2511 14.5101L15.1217 15.5879L15.0457 17.6233C15.0401 17.7721 15.0639 17.9205 15.1157 18.0601C15.1676 18.1996 15.2464 18.3276 15.3478 18.4368C15.4492 18.5459 15.5712 18.634 15.7067 18.6961C15.8422 18.7582 15.9886 18.793 16.1376 18.7986C16.2866 18.8042 16.4352 18.7804 16.575 18.7286C16.7148 18.6769 16.843 18.5981 16.9523 18.4969C17.0616 18.3956 17.1499 18.2739 17.212 18.1386C17.2742 18.0033 17.3091 17.8571 17.3147 17.7083L17.3453 16.8697L18.2909 17.4148C18.42 17.4904 18.5628 17.5397 18.7111 17.56C18.8595 17.5802 19.0103 17.571 19.155 17.5328C19.2998 17.4946 19.4355 17.4282 19.5544 17.3374C19.6733 17.2466 19.7731 17.1332 19.8479 17.0038C19.9228 16.8743 19.9712 16.7314 19.9905 16.5832C20.0098 16.435 19.9996 16.2844 19.9603 16.1401C19.9211 15.9959 19.8537 15.8608 19.762 15.7427C19.6703 15.6246 19.5561 15.5257 19.4259 15.4519L18.4815 14.9079L19.1921 14.4613C19.4471 14.3014 19.628 14.0469 19.6951 13.7538C19.7621 13.4607 19.7098 13.1531 19.5497 12.8985C19.3895 12.6439 19.1346 12.4632 18.8411 12.3963C18.5475 12.3293 18.2394 12.3816 17.9844 12.5415L16.2568 13.6249L14.3873 12.5483C14.6085 11.7538 14.6085 10.914 14.3873 10.1195L16.2568 9.04173L17.9844 10.1252C18.2394 10.2851 18.5475 10.3373 18.8411 10.2704C19.1346 10.2034 19.3895 10.0228 19.5497 9.7682C19.7098 9.51361 19.7621 9.20592 19.6951 8.91283C19.628 8.61974 19.4471 8.36524 19.1921 8.20533L18.4804 7.75993L19.4259 7.2148C19.5561 7.14093 19.6703 7.04208 19.762 6.92396C19.8537 6.80583 19.9211 6.67076 19.9603 6.52652C19.9996 6.38228 20.0098 6.23171 19.9905 6.08349C19.9712 5.93528 19.9228 5.79233 19.8479 5.66289C19.7731 5.53346 19.6733 5.42008 19.5544 5.32929C19.4355 5.2385 19.2998 5.17209 19.155 5.13389C19.0103 5.09568 18.8595 5.08644 18.7111 5.10669C18.5628 5.12694 18.42 5.17628 18.2909 5.25187L17.3453 5.79587L17.3147 4.95833C17.3091 4.80958 17.2742 4.66337 17.212 4.52808C17.1499 4.39278 17.0616 4.27103 16.9523 4.16979C16.843 4.06855 16.7148 3.9898 16.575 3.93803C16.4352 3.88626 16.2866 3.86249 16.1376 3.86807C15.9886 3.87365 15.8422 3.90847 15.7067 3.97056C15.5712 4.03264 15.4492 4.12076 15.3478 4.2299C15.2464 4.33903 15.1676 4.46704 15.1157 4.60661C15.0639 4.74618 15.0401 4.89458 15.0457 5.04333L15.1217 7.0788L13.2511 8.1566C12.6731 7.56858 11.9456 7.14895 11.1466 6.9428V4.7872L12.9503 3.8352C13.2164 3.69468 13.4157 3.45436 13.5044 3.16711C13.593 2.87986 13.5638 2.56921 13.4231 2.3035C13.2823 2.03779 13.0416 1.83878 12.7539 1.75026C12.4662 1.66173 12.1551 1.69095 11.889 1.83147L11.1466 2.2236V1.13333Z" fill="#F8F5FF"/>
</svg>
