<svg width="33" height="26" viewBox="0 0 33 26" fill="none" xmlns="http://www.w3.org/2000/svg">
<path d="M16.5731 3.12012C16.6995 3.0418 16.848 3 17 3C17.152 3 17.3005 3.0418 17.4269 3.12012C19.67 4.50883 22.6269 5.87683 26.3077 6.21829C26.4974 6.236 26.6733 6.31853 26.8013 6.44987C26.9292 6.5812 27 6.75198 27 6.92908V13.0011C27 15.7728 25.3662 18.1231 23.3838 19.8204C21.4054 21.5148 18.9708 22.6571 17.1415 22.9757L17 23L16.8585 22.9757C15.0292 22.6571 12.5946 21.5148 10.6162 19.8204C8.63385 18.1231 7 15.7728 7 13.0011V6.92908C7 6.75198 7.07083 6.5812 7.19875 6.44987C7.32667 6.31853 7.50257 6.236 7.69231 6.21829C11.3731 5.87683 14.3308 4.50883 16.5731 3.12012ZM22.1592 10.6495C22.3036 10.5155 22.3847 10.3338 22.3848 10.1443C22.3848 9.9548 22.3039 9.77304 22.1596 9.639C22.0154 9.50495 21.8197 9.42961 21.6157 9.42955C21.4116 9.42948 21.2159 9.50469 21.0715 9.63864L15.4615 14.8485L13.6977 13.2104C13.5526 13.0803 13.3583 13.0083 13.1566 13.0099C12.9549 13.0116 12.762 13.0867 12.6194 13.2191C12.4767 13.3516 12.3958 13.5308 12.3941 13.7181C12.3923 13.9054 12.4699 14.0858 12.61 14.2205L14.9177 16.3636C15.0619 16.4975 15.2576 16.5728 15.4615 16.5728C15.6655 16.5728 15.8611 16.4975 16.0054 16.3636L22.1592 10.6495Z" fill="#F8F5FF"/>
</svg>
