<svg width="13" height="26" viewBox="0 0 13 26" fill="none" xmlns="http://www.w3.org/2000/svg">
<path fill-rule="evenodd" clip-rule="evenodd" d="M5.9091 0C3.95102 0 2.36365 1.74605 2.36365 3.90001V14.2995C0.928409 15.4854 0 17.3734 0 19.5C0 23.0899 2.64563 26 5.9091 26C9.17258 26 11.8182 23.0899 11.8182 19.5C11.8182 17.3734 10.8898 15.4854 9.45455 14.2995V3.90001C9.45455 1.74605 7.86719 0 5.9091 0ZM10.6363 1.29998H13V2.59996H10.6363V1.29998ZM10.6363 5.19999H13V6.49997H10.6363V5.19999ZM13 9.09999H10.6363V10.4H13V9.09999ZM10.6363 13H13V14.3H10.6363V13ZM5.9091 22.1C7.21449 22.1 8.27275 20.936 8.27275 19.5C8.27275 18.064 7.21449 16.9 5.9091 16.9C4.60371 16.9 3.54545 18.064 3.54545 19.5C3.54545 20.936 4.60371 22.1 5.9091 22.1Z" fill="#F8F5FF"/>
</svg>
